<svg version="1.1" xmlns="http://www.w3.org/2000/svg" viewBox="0 0 874.7365936508171 564.7221937191689" width="874.7365936508171" height="564.7221937191689">
  <!-- svg-source:excalidraw -->
  
  <defs>
    <style>
      @font-face {
        font-family: "Virgil";
        src: url("https://excalidraw.com/Virgil.woff2");
      }
      @font-face {
        font-family: "Cascadia";
        src: url("https://excalidraw.com/Cascadia.woff2");
      }
    </style>
  </defs>
  <rect x="0" y="0" width="874.7365936508171" height="564.7221937191689" fill="#e3fafc"></rect><g stroke-linecap="round"><g transform="translate(74.90731577495569 49.288561326045965) rotate(0 0.4974873607287691 234.89748024070605)"><path d="M0 0 C0.17 78.3, 0.83 391.5, 0.99 469.79 M0 0 C0.17 78.3, 0.83 391.5, 0.99 469.79" stroke="#000000" stroke-width="2" fill="none"></path></g><g transform="translate(74.90731577495569 49.288561326045965) rotate(0 0.4974873607287691 234.89748024070605)"><path d="M10.32 28.17 C6.38 17.42, 2.45 6.68, 0 0 M10.32 28.17 C7.36 20.08, 4.39 11.99, 0 0" stroke="#000000" stroke-width="2" fill="none"></path></g><g transform="translate(74.90731577495569 49.288561326045965) rotate(0 0.4974873607287691 234.89748024070605)"><path d="M-10.2 28.21 C-6.31 17.45, -2.42 6.69, 0 0 M-10.2 28.21 C-7.27 20.11, -4.34 12.01, 0 0" stroke="#000000" stroke-width="2" fill="none"></path></g><g transform="translate(74.90731577495569 49.288561326045965) rotate(0 0.4974873607287691 234.89748024070605)"><path d="M-9.33 441.63 C-5.39 452.37, -1.45 463.12, 0.99 469.79 M-9.33 441.63 C-6.36 449.72, -3.4 457.8, 0.99 469.79" stroke="#000000" stroke-width="2" fill="none"></path></g><g transform="translate(74.90731577495569 49.288561326045965) rotate(0 0.4974873607287691 234.89748024070605)"><path d="M11.2 441.58 C7.3 452.34, 3.41 463.11, 0.99 469.79 M11.2 441.58 C8.27 449.68, 5.34 457.79, 0.99 469.79" stroke="#000000" stroke-width="2" fill="none"></path></g></g><g transform="translate(19.01122364845935 10) rotate(0 52.5 12.5)"><text x="52.5" y="18" font-family="Virgil, Segoe UI Emoji" font-size="20px" fill="#c92a2a" text-anchor="middle" style="white-space: pre;" direction="ltr">Must have</text></g><g transform="translate(10 529.7221937191689) rotate(0 63.50000000000006 12.5)"><text x="63.5" y="18" font-family="Virgil, Segoe UI Emoji" font-size="20px" fill="#5c940d" text-anchor="middle" style="white-space: pre;" direction="ltr">Nice to have</text></g><g stroke-linecap="round" transform="translate(121.13291615558398 82.15486405262527) rotate(0 245.2085011553404 31.255221265309956)"><path d="M0 0 C0 0, 0 0, 0 0 M0 0 C0 0, 0 0, 0 0 M0.13 12.04 C2.34 9.5, 4.54 6.97, 10.63 -0.03 M0.13 12.04 C3.34 8.35, 6.55 4.66, 10.63 -0.03 M0.27 24.08 C4.88 18.77, 9.5 13.46, 21.26 -0.07 M0.27 24.08 C8.44 14.68, 16.62 5.27, 21.26 -0.07 M-0.26 36.88 C7.22 28.28, 14.69 19.68, 31.89 -0.1 M-0.26 36.88 C8 27.38, 16.25 17.89, 31.89 -0.1 M-0.12 48.92 C16.88 29.36, 33.88 9.8, 42.52 -0.14 M-0.12 48.92 C10.84 36.3, 21.81 23.69, 42.52 -0.14 M0.01 60.96 C16.28 42.25, 32.54 23.53, 53.15 -0.17 M0.01 60.96 C14.07 44.79, 28.12 28.62, 53.15 -0.17 M5.39 66.96 C27.76 41.23, 50.12 15.51, 63.78 -0.21 M5.39 66.96 C18.41 51.99, 31.43 37.01, 63.78 -0.21 M16.02 66.93 C27.76 53.42, 39.5 39.92, 74.41 -0.24 M16.02 66.93 C39.05 40.44, 62.07 13.95, 74.41 -0.24 M26.65 66.89 C42.9 48.2, 59.15 29.51, 85.04 -0.28 M26.65 66.89 C44.44 46.43, 62.23 25.97, 85.04 -0.28 M37.28 66.86 C59.63 41.15, 81.97 15.45, 95.67 -0.31 M37.28 66.86 C60.13 40.58, 82.98 14.29, 95.67 -0.31 M47.91 66.82 C67.47 44.32, 87.04 21.82, 106.3 -0.34 M47.91 66.82 C68.33 43.34, 88.74 19.85, 106.3 -0.34 M58.54 66.79 C76.55 46.07, 94.56 25.36, 116.27 0.38 M58.54 66.79 C80.49 41.54, 102.44 16.29, 116.27 0.38 M69.17 66.76 C83.56 50.21, 97.94 33.66, 126.91 0.34 M69.17 66.76 C88.52 44.5, 107.86 22.25, 126.91 0.34 M79.8 66.72 C99.71 43.82, 119.61 20.93, 137.54 0.31 M79.8 66.72 C100.9 42.45, 122 18.18, 137.54 0.31 M89.78 67.44 C105.07 49.85, 120.37 32.25, 148.17 0.27 M89.78 67.44 C105.41 49.46, 121.04 31.47, 148.17 0.27 M100.41 67.41 C113.99 51.78, 127.57 36.16, 158.8 0.24 M100.41 67.41 C119.74 45.16, 139.08 22.91, 158.8 0.24 M111.04 67.37 C126.21 49.91, 141.39 32.45, 169.43 0.2 M111.04 67.37 C127.63 48.28, 144.22 29.2, 169.43 0.2 M121.67 67.34 C134.64 52.42, 147.61 37.5, 180.06 0.17 M121.67 67.34 C141.6 44.41, 161.53 21.48, 180.06 0.17 M132.3 67.3 C148.35 48.83, 164.41 30.36, 190.69 0.13 M132.3 67.3 C152.76 43.76, 173.23 20.21, 190.69 0.13 M142.93 67.27 C163.68 43.4, 184.43 19.52, 201.32 0.1 M142.93 67.27 C156.91 51.19, 170.89 35.1, 201.32 0.1 M153.56 67.23 C175.99 41.42, 198.43 15.61, 211.95 0.06 M153.56 67.23 C174.73 42.87, 195.91 18.51, 211.95 0.06 M164.19 67.2 C185.77 42.36, 207.36 17.53, 222.58 0.03 M164.19 67.2 C184.54 43.78, 204.9 20.37, 222.58 0.03 M174.82 67.16 C187.09 53.04, 199.37 38.92, 233.21 0 M174.82 67.16 C189.19 50.63, 203.57 34.09, 233.21 0 M185.45 67.13 C208.67 40.41, 231.9 13.7, 243.84 -0.04 M185.45 67.13 C207.16 42.15, 228.87 17.18, 243.84 -0.04 M196.08 67.1 C208.97 52.27, 221.86 37.44, 254.47 -0.07 M196.08 67.1 C211.04 49.88, 226.01 32.66, 254.47 -0.07 M206.71 67.06 C222.32 49.1, 237.94 31.13, 265.1 -0.11 M206.71 67.06 C223.74 47.47, 240.77 27.87, 265.1 -0.11 M217.34 67.03 C230.7 51.65, 244.06 36.28, 275.73 -0.14 M217.34 67.03 C233.57 48.35, 249.81 29.68, 275.73 -0.14 M227.97 66.99 C239.76 53.42, 251.56 39.85, 286.36 -0.18 M227.97 66.99 C243.76 48.83, 259.55 30.66, 286.36 -0.18 M238.6 66.96 C255.71 47.28, 272.82 27.59, 296.99 -0.21 M238.6 66.96 C257.63 45.07, 276.66 23.18, 296.99 -0.21 M249.23 66.92 C267.92 45.42, 286.61 23.92, 307.62 -0.25 M249.23 66.92 C269.67 43.41, 290.11 19.89, 307.62 -0.25 M259.86 66.89 C272.53 52.32, 285.2 37.74, 318.25 -0.28 M259.86 66.89 C274.12 50.48, 288.38 34.08, 318.25 -0.28 M270.49 66.85 C290.08 44.31, 309.68 21.77, 328.88 -0.31 M270.49 66.85 C291.05 43.2, 311.62 19.54, 328.88 -0.31 M281.12 66.82 C295.7 50.04, 310.28 33.27, 339.51 -0.35 M281.12 66.82 C293.21 52.91, 305.3 39, 339.51 -0.35 M291.75 66.79 C306.63 49.67, 321.5 32.56, 349.48 0.37 M291.75 66.79 C313.58 41.66, 335.42 16.54, 349.48 0.37 M302.38 66.75 C324.65 41.13, 346.91 15.52, 360.11 0.34 M302.38 66.75 C314.97 52.27, 327.56 37.78, 360.11 0.34 M312.35 67.47 C329.34 47.93, 346.32 28.39, 370.74 0.3 M312.35 67.47 C330.4 46.71, 348.45 25.94, 370.74 0.3 M322.98 67.44 C338.43 49.67, 353.87 31.9, 381.37 0.27 M322.98 67.44 C335.28 53.29, 347.58 39.14, 381.37 0.27 M333.61 67.4 C353.17 44.9, 372.74 22.4, 392 0.23 M333.61 67.4 C351.46 46.87, 369.31 26.34, 392 0.23 M344.24 67.37 C360.08 49.15, 375.91 30.94, 402.63 0.2 M344.24 67.37 C364.55 44, 384.86 20.64, 402.63 0.2 M354.87 67.33 C371.53 48.17, 388.18 29.02, 413.26 0.16 M354.87 67.33 C372.87 46.63, 390.87 25.92, 413.26 0.16 M365.5 67.3 C379.28 51.45, 393.06 35.6, 423.89 0.13 M365.5 67.3 C384.33 45.65, 403.15 23.99, 423.89 0.13 M376.13 67.26 C395.52 44.97, 414.9 22.67, 434.52 0.1 M376.13 67.26 C395.8 44.63, 415.48 22, 434.52 0.1 M386.76 67.23 C406.3 44.76, 425.83 22.29, 445.15 0.06 M386.76 67.23 C401.75 49.99, 416.74 32.75, 445.15 0.06 M397.39 67.2 C412.63 49.66, 427.88 32.13, 455.78 0.03 M397.39 67.2 C420.25 40.9, 443.11 14.6, 455.78 0.03 M408.02 67.16 C430.67 41.11, 453.31 15.06, 466.41 -0.01 M408.02 67.16 C419.87 53.53, 431.72 39.9, 466.41 -0.01 M418.65 67.13 C439.29 43.38, 459.93 19.64, 477.04 -0.04 M418.65 67.13 C439.17 43.52, 459.69 19.92, 477.04 -0.04 M429.28 67.09 C450.42 42.78, 471.55 18.47, 487.67 -0.08 M429.28 67.09 C443.47 50.78, 457.65 34.46, 487.67 -0.08 M439.91 67.06 C455.66 48.95, 471.4 30.84, 495.02 3.66 M439.91 67.06 C455.12 49.57, 470.32 32.08, 495.02 3.66 M450.54 67.02 C462.52 53.24, 474.51 39.46, 495.15 15.7 M450.54 67.02 C467.86 47.11, 485.17 27.19, 495.15 15.7 M461.17 66.99 C468.85 58.16, 476.52 49.33, 494.63 28.5 M461.17 66.99 C471.33 55.3, 481.49 43.61, 494.63 28.5 M471.8 66.95 C477.88 59.97, 483.95 52.98, 494.77 40.54 M471.8 66.95 C478.23 59.57, 484.65 52.18, 494.77 40.54 M482.43 66.92 C486.81 61.88, 491.2 56.84, 494.9 52.58 M482.43 66.92 C486.84 61.85, 491.24 56.79, 494.9 52.58" stroke="#fa5252" stroke-width="1" fill="none"></path><path d="M0 0 C168.56 0, 337.12 0, 490.42 0 M0 0 C168.2 0, 336.4 0, 490.42 0 M490.42 0 C490.42 19.68, 490.42 39.36, 490.42 62.51 M490.42 0 C490.42 19.37, 490.42 38.75, 490.42 62.51 M490.42 62.51 C301.89 62.51, 113.36 62.51, 0 62.51 M490.42 62.51 C379.63 62.51, 268.84 62.51, 0 62.51 M0 62.51 C0 46.01, 0 29.5, 0 0 M0 62.51 C0 42.18, 0 21.84, 0 0" stroke="#a61e4d" stroke-width="2" fill="none"></path></g><g transform="translate(185.3024469884532 88.46027928886633) rotate(0 187 25)"><text x="187" y="17" font-family="Virgil, Segoe UI Emoji" font-size="20px" fill="#000000" text-anchor="middle" style="white-space: pre;" direction="ltr">Solution to prevent overwrite of</text><text x="187" y="42" font-family="Virgil, Segoe UI Emoji" font-size="20px" fill="#000000" text-anchor="middle" style="white-space: pre;" direction="ltr"> an app by deploy to the same folder</text></g><g stroke-linecap="round" transform="translate(121.45509311449393 163.9984193268201) rotate(0 245.2085011553404 31.255221265309956)"><path d="M0 0 C0 0, 0 0, 0 0 M0 0 C0 0, 0 0, 0 0 M0.13 12.04 C3.54 8.12, 6.95 4.2, 10.63 -0.03 M0.13 12.04 C2.88 8.89, 5.62 5.73, 10.63 -0.03 M0.27 24.08 C8.4 14.72, 16.54 5.36, 21.26 -0.07 M0.27 24.08 C8.36 14.77, 16.46 5.45, 21.26 -0.07 M-0.26 36.88 C7.45 28.01, 15.16 19.15, 31.89 -0.1 M-0.26 36.88 C11.42 23.44, 23.1 10.01, 31.89 -0.1 M-0.12 48.92 C13.57 33.16, 27.27 17.4, 42.52 -0.14 M-0.12 48.92 C15.39 31.07, 30.91 13.22, 42.52 -0.14 M0.01 60.96 C16.05 42.5, 32.1 24.05, 53.15 -0.17 M0.01 60.96 C20.79 37.06, 41.56 13.16, 53.15 -0.17 M5.39 66.96 C18.74 51.61, 32.09 36.25, 63.78 -0.21 M5.39 66.96 C27.91 41.05, 50.43 15.15, 63.78 -0.21 M16.02 66.93 C37.73 41.95, 59.44 16.98, 74.41 -0.24 M16.02 66.93 C29.41 51.52, 42.8 36.12, 74.41 -0.24 M26.65 66.89 C48.42 41.85, 70.18 16.82, 85.04 -0.28 M26.65 66.89 C41.04 50.34, 55.44 33.78, 85.04 -0.28 M37.28 66.86 C54.21 47.38, 71.15 27.9, 95.67 -0.31 M37.28 66.86 C49.46 52.85, 61.64 38.84, 95.67 -0.31 M47.91 66.82 C68.14 43.55, 88.37 20.28, 106.3 -0.34 M47.91 66.82 C61.73 50.93, 75.55 35.04, 106.3 -0.34 M58.54 66.79 C80.28 41.79, 102.01 16.79, 116.27 0.38 M58.54 66.79 C70.35 53.21, 82.15 39.63, 116.27 0.38 M69.17 66.76 C90.66 42.04, 112.15 17.32, 126.91 0.34 M69.17 66.76 C83.14 50.69, 97.1 34.63, 126.91 0.34 M79.8 66.72 C98.91 44.74, 118.02 22.76, 137.54 0.31 M79.8 66.72 C99.3 44.29, 118.81 21.85, 137.54 0.31 M89.78 67.44 C101.57 53.87, 113.37 40.3, 148.17 0.27 M89.78 67.44 C103.98 51.1, 118.19 34.75, 148.17 0.27 M100.41 67.41 C119.85 45.03, 139.3 22.66, 158.8 0.24 M100.41 67.41 C116.46 48.94, 132.5 30.48, 158.8 0.24 M111.04 67.37 C123.75 52.75, 136.46 38.12, 169.43 0.2 M111.04 67.37 C123.73 52.77, 136.42 38.18, 169.43 0.2 M121.67 67.34 C141.63 44.37, 161.59 21.41, 180.06 0.17 M121.67 67.34 C140.77 45.36, 159.88 23.38, 180.06 0.17 M132.3 67.3 C151.62 45.08, 170.93 22.85, 190.69 0.13 M132.3 67.3 C146.06 51.47, 159.81 35.65, 190.69 0.13 M142.93 67.27 C166.06 40.65, 189.2 14.04, 201.32 0.1 M142.93 67.27 C163.46 43.65, 183.99 20.02, 201.32 0.1 M153.56 67.23 C170.06 48.25, 186.56 29.27, 211.95 0.06 M153.56 67.23 C174.88 42.7, 196.21 18.17, 211.95 0.06 M164.19 67.2 C182.56 46.06, 200.93 24.93, 222.58 0.03 M164.19 67.2 C178.81 50.38, 193.43 33.55, 222.58 0.03 M174.82 67.16 C194.89 44.07, 214.97 20.97, 233.21 0 M174.82 67.16 C196.33 42.41, 217.85 17.66, 233.21 0 M185.45 67.13 C208.53 40.57, 231.62 14.02, 243.84 -0.04 M185.45 67.13 C201.27 48.93, 217.1 30.72, 243.84 -0.04 M196.08 67.1 C208.64 52.65, 221.2 38.2, 254.47 -0.07 M196.08 67.1 C207.93 53.46, 219.79 39.82, 254.47 -0.07 M206.71 67.06 C225.18 45.82, 243.64 24.57, 265.1 -0.11 M206.71 67.06 C224.59 46.49, 242.46 25.93, 265.1 -0.11 M217.34 67.03 C236.41 45.09, 255.48 23.15, 275.73 -0.14 M217.34 67.03 C236.13 45.41, 254.92 23.8, 275.73 -0.14 M227.97 66.99 C241.69 51.21, 255.41 35.42, 286.36 -0.18 M227.97 66.99 C250.98 40.52, 273.98 14.06, 286.36 -0.18 M238.6 66.96 C258.36 44.23, 278.12 21.5, 296.99 -0.21 M238.6 66.96 C260.38 41.9, 282.16 16.84, 296.99 -0.21 M249.23 66.92 C266.09 47.52, 282.95 28.12, 307.62 -0.25 M249.23 66.92 C261.96 52.28, 274.69 37.63, 307.62 -0.25 M259.86 66.89 C273.87 50.77, 287.89 34.64, 318.25 -0.28 M259.86 66.89 C277.4 46.71, 294.94 26.54, 318.25 -0.28 M270.49 66.85 C287.69 47.06, 304.9 27.27, 328.88 -0.31 M270.49 66.85 C282.57 52.96, 294.65 39.06, 328.88 -0.31 M281.12 66.82 C295.76 49.97, 310.41 33.13, 339.51 -0.35 M281.12 66.82 C295.29 50.52, 309.46 34.22, 339.51 -0.35 M291.75 66.79 C306.13 50.24, 320.52 33.69, 349.48 0.37 M291.75 66.79 C305.29 51.2, 318.84 35.62, 349.48 0.37 M302.38 66.75 C320.84 45.51, 339.3 24.28, 360.11 0.34 M302.38 66.75 C315.9 51.2, 329.42 35.65, 360.11 0.34 M312.35 67.47 C325.71 52.11, 339.07 36.74, 370.74 0.3 M312.35 67.47 C331.07 45.93, 349.79 24.4, 370.74 0.3 M322.98 67.44 C336.15 52.29, 349.32 37.14, 381.37 0.27 M322.98 67.44 C340.75 47, 358.52 26.55, 381.37 0.27 M333.61 67.4 C350.51 47.96, 367.41 28.52, 392 0.23 M333.61 67.4 C352.86 45.26, 372.1 23.13, 392 0.23 M344.24 67.37 C360.39 48.79, 376.54 30.22, 402.63 0.2 M344.24 67.37 C366.31 41.98, 388.38 16.59, 402.63 0.2 M354.87 67.33 C376.29 42.69, 397.71 18.05, 413.26 0.16 M354.87 67.33 C370.72 49.1, 386.57 30.87, 413.26 0.16 M365.5 67.3 C377.81 53.14, 390.12 38.98, 423.89 0.13 M365.5 67.3 C387.42 42.09, 409.33 16.88, 423.89 0.13 M376.13 67.26 C398.11 41.98, 420.1 16.69, 434.52 0.1 M376.13 67.26 C387.9 53.73, 399.67 40.19, 434.52 0.1 M386.76 67.23 C404.05 47.34, 421.34 27.45, 445.15 0.06 M386.76 67.23 C404.97 46.29, 423.17 25.35, 445.15 0.06 M397.39 67.2 C415.69 46.15, 433.99 25.1, 455.78 0.03 M397.39 67.2 C416.11 45.67, 434.82 24.14, 455.78 0.03 M408.02 67.16 C421.45 51.72, 434.87 36.27, 466.41 -0.01 M408.02 67.16 C431.27 40.42, 454.51 13.68, 466.41 -0.01 M418.65 67.13 C439.23 43.46, 459.8 19.79, 477.04 -0.04 M418.65 67.13 C434.66 48.71, 450.67 30.29, 477.04 -0.04 M429.28 67.09 C443.25 51.02, 457.23 34.95, 487.67 -0.08 M429.28 67.09 C449.16 44.23, 469.03 21.36, 487.67 -0.08 M439.91 67.06 C459.08 45, 478.26 22.95, 495.02 3.66 M439.91 67.06 C453.9 50.96, 467.89 34.87, 495.02 3.66 M450.54 67.02 C467.54 47.47, 484.54 27.91, 495.15 15.7 M450.54 67.02 C461.25 54.7, 471.96 42.38, 495.15 15.7 M461.17 66.99 C472.35 54.13, 483.53 41.27, 494.63 28.5 M461.17 66.99 C471.08 55.59, 480.99 44.2, 494.63 28.5 M471.8 66.95 C477.35 60.57, 482.9 54.18, 494.77 40.54 M471.8 66.95 C478.55 59.19, 485.29 51.44, 494.77 40.54 M482.43 66.92 C485.24 63.7, 488.04 60.47, 494.9 52.58 M482.43 66.92 C487.2 61.43, 491.97 55.94, 494.9 52.58" stroke="#fa5252" stroke-width="1" fill="none"></path><path d="M0 0 C119.53 0, 239.06 0, 490.42 0 M0 0 C143.23 0, 286.47 0, 490.42 0 M490.42 0 C490.42 24.47, 490.42 48.93, 490.42 62.51 M490.42 0 C490.42 20.06, 490.42 40.13, 490.42 62.51 M490.42 62.51 C373.86 62.51, 257.3 62.51, 0 62.51 M490.42 62.51 C364.54 62.51, 238.67 62.51, 0 62.51 M0 62.51 C0 39.03, 0 15.54, 0 0 M0 62.51 C0 40.92, 0 19.34, 0 0" stroke="#a61e4d" stroke-width="2" fill="none"></path></g><g transform="translate(132.0302340268869 184.4814399222323) rotate(0 238.5 12.5)"><text x="238.5" y="18" font-family="Virgil, Segoe UI Emoji" font-size="20px" fill="#000000" text-anchor="middle" style="white-space: pre;" direction="ltr">Deployment strategy for PTV apps (DEv-PROD)</text></g><g stroke-linecap="round" transform="translate(108.88861838326773 70.55499394814797) rotate(0 14.177617650842876 11.922108521736845)"><path d="M28.36 11.92 C28.36 12.61, 28.28 13.31, 28.14 13.99 C28 14.67, 27.78 15.35, 27.5 16 C27.22 16.65, 26.87 17.29, 26.46 17.88 C26.05 18.48, 25.57 19.06, 25.04 19.59 C24.51 20.11, 23.92 20.61, 23.29 21.05 C22.66 21.5, 21.98 21.9, 21.27 22.25 C20.56 22.59, 19.8 22.89, 19.03 23.13 C18.26 23.36, 17.45 23.54, 16.64 23.66 C15.83 23.78, 15 23.84, 14.18 23.84 C13.36 23.84, 12.52 23.78, 11.72 23.66 C10.91 23.54, 10.1 23.36, 9.33 23.13 C8.56 22.89, 7.8 22.59, 7.09 22.25 C6.38 21.9, 5.69 21.5, 5.06 21.05 C4.44 20.61, 3.84 20.11, 3.32 19.59 C2.79 19.06, 2.31 18.48, 1.9 17.88 C1.49 17.29, 1.14 16.65, 0.86 16 C0.57 15.35, 0.36 14.67, 0.22 13.99 C0.07 13.31, 0 12.61, 0 11.92 C0 11.23, 0.07 10.53, 0.22 9.85 C0.36 9.17, 0.57 8.49, 0.86 7.84 C1.14 7.2, 1.49 6.56, 1.9 5.96 C2.31 5.36, 2.79 4.79, 3.32 4.26 C3.84 3.73, 4.44 3.23, 5.06 2.79 C5.69 2.35, 6.38 1.94, 7.09 1.6 C7.8 1.25, 8.56 0.96, 9.33 0.72 C10.1 0.48, 10.91 0.3, 11.72 0.18 C12.52 0.06, 13.36 0, 14.18 0 C15 0, 15.83 0.06, 16.64 0.18 C17.45 0.3, 18.26 0.48, 19.03 0.72 C19.8 0.96, 20.56 1.25, 21.27 1.6 C21.98 1.94, 22.66 2.35, 23.29 2.79 C23.92 3.23, 24.51 3.73, 25.04 4.26 C25.57 4.79, 26.05 5.36, 26.46 5.96 C26.87 6.56, 27.22 7.2, 27.5 7.84 C27.78 8.49, 28 9.17, 28.14 9.85 C28.28 10.53, 28.32 11.58, 28.36 11.92 C28.39 12.27, 28.39 11.58, 28.36 11.92" stroke="none" stroke-width="0" fill="#fa5252"></path><path d="M28.36 11.92 C28.36 12.61, 28.28 13.31, 28.14 13.99 C28 14.67, 27.78 15.35, 27.5 16 C27.22 16.65, 26.87 17.29, 26.46 17.88 C26.05 18.48, 25.57 19.06, 25.04 19.59 C24.51 20.11, 23.92 20.61, 23.29 21.05 C22.66 21.5, 21.98 21.9, 21.27 22.25 C20.56 22.59, 19.8 22.89, 19.03 23.13 C18.26 23.36, 17.45 23.54, 16.64 23.66 C15.83 23.78, 15 23.84, 14.18 23.84 C13.36 23.84, 12.52 23.78, 11.72 23.66 C10.91 23.54, 10.1 23.36, 9.33 23.13 C8.56 22.89, 7.8 22.59, 7.09 22.25 C6.38 21.9, 5.69 21.5, 5.06 21.05 C4.44 20.61, 3.84 20.11, 3.32 19.59 C2.79 19.06, 2.31 18.48, 1.9 17.88 C1.49 17.29, 1.14 16.65, 0.86 16 C0.57 15.35, 0.36 14.67, 0.22 13.99 C0.07 13.31, 0 12.61, 0 11.92 C0 11.23, 0.07 10.53, 0.22 9.85 C0.36 9.17, 0.57 8.49, 0.86 7.84 C1.14 7.2, 1.49 6.56, 1.9 5.96 C2.31 5.36, 2.79 4.79, 3.32 4.26 C3.84 3.73, 4.44 3.23, 5.06 2.79 C5.69 2.35, 6.38 1.94, 7.09 1.6 C7.8 1.25, 8.56 0.96, 9.33 0.72 C10.1 0.48, 10.91 0.3, 11.72 0.18 C12.52 0.06, 13.36 0, 14.18 0 C15 0, 15.83 0.06, 16.64 0.18 C17.45 0.3, 18.26 0.48, 19.03 0.72 C19.8 0.96, 20.56 1.25, 21.27 1.6 C21.98 1.94, 22.66 2.35, 23.29 2.79 C23.92 3.23, 24.51 3.73, 25.04 4.26 C25.57 4.79, 26.05 5.36, 26.46 5.96 C26.87 6.56, 27.22 7.2, 27.5 7.84 C27.78 8.49, 28 9.17, 28.14 9.85 C28.28 10.53, 28.32 11.58, 28.36 11.92 C28.39 12.27, 28.39 11.58, 28.36 11.92" stroke="#000000" stroke-width="2" fill="none"></path></g><g stroke-linecap="round" transform="translate(109.69417755140569 153.36517843243018) rotate(0 14.177617650842876 11.922108521736845)"><path d="M28.36 11.92 C28.36 12.61, 28.28 13.31, 28.14 13.99 C28 14.67, 27.78 15.35, 27.5 16 C27.22 16.65, 26.87 17.29, 26.46 17.88 C26.05 18.48, 25.57 19.06, 25.04 19.59 C24.51 20.11, 23.92 20.61, 23.29 21.05 C22.66 21.5, 21.98 21.9, 21.27 22.25 C20.56 22.59, 19.8 22.89, 19.03 23.13 C18.26 23.36, 17.45 23.54, 16.64 23.66 C15.83 23.78, 15 23.84, 14.18 23.84 C13.36 23.84, 12.52 23.78, 11.72 23.66 C10.91 23.54, 10.1 23.36, 9.33 23.13 C8.56 22.89, 7.8 22.59, 7.09 22.25 C6.38 21.9, 5.69 21.5, 5.06 21.05 C4.44 20.61, 3.84 20.11, 3.32 19.59 C2.79 19.06, 2.31 18.48, 1.9 17.88 C1.49 17.29, 1.14 16.65, 0.86 16 C0.57 15.35, 0.36 14.67, 0.22 13.99 C0.07 13.31, 0 12.61, 0 11.92 C0 11.23, 0.07 10.53, 0.22 9.85 C0.36 9.17, 0.57 8.49, 0.86 7.84 C1.14 7.2, 1.49 6.56, 1.9 5.96 C2.31 5.36, 2.79 4.79, 3.32 4.26 C3.84 3.73, 4.44 3.23, 5.06 2.79 C5.69 2.35, 6.38 1.94, 7.09 1.6 C7.8 1.25, 8.56 0.96, 9.33 0.72 C10.1 0.48, 10.91 0.3, 11.72 0.18 C12.52 0.06, 13.36 0, 14.18 0 C15 0, 15.83 0.06, 16.64 0.18 C17.45 0.3, 18.26 0.48, 19.03 0.72 C19.8 0.96, 20.56 1.25, 21.27 1.6 C21.98 1.94, 22.66 2.35, 23.29 2.79 C23.92 3.23, 24.51 3.73, 25.04 4.26 C25.57 4.79, 26.05 5.36, 26.46 5.96 C26.87 6.56, 27.22 7.2, 27.5 7.84 C27.78 8.49, 28 9.17, 28.14 9.85 C28.28 10.53, 28.32 11.58, 28.36 11.92 C28.39 12.27, 28.39 11.58, 28.36 11.92" stroke="none" stroke-width="0" fill="#82c91e"></path><path d="M28.36 11.92 C28.36 12.61, 28.28 13.31, 28.14 13.99 C28 14.67, 27.78 15.35, 27.5 16 C27.22 16.65, 26.87 17.29, 26.46 17.88 C26.05 18.48, 25.57 19.06, 25.04 19.59 C24.51 20.11, 23.92 20.61, 23.29 21.05 C22.66 21.5, 21.98 21.9, 21.27 22.25 C20.56 22.59, 19.8 22.89, 19.03 23.13 C18.26 23.36, 17.45 23.54, 16.64 23.66 C15.83 23.78, 15 23.84, 14.18 23.84 C13.36 23.84, 12.52 23.78, 11.72 23.66 C10.91 23.54, 10.1 23.36, 9.33 23.13 C8.56 22.89, 7.8 22.59, 7.09 22.25 C6.38 21.9, 5.69 21.5, 5.06 21.05 C4.44 20.61, 3.84 20.11, 3.32 19.59 C2.79 19.06, 2.31 18.48, 1.9 17.88 C1.49 17.29, 1.14 16.65, 0.86 16 C0.57 15.35, 0.36 14.67, 0.22 13.99 C0.07 13.31, 0 12.61, 0 11.92 C0 11.23, 0.07 10.53, 0.22 9.85 C0.36 9.17, 0.57 8.49, 0.86 7.84 C1.14 7.2, 1.49 6.56, 1.9 5.96 C2.31 5.36, 2.79 4.79, 3.32 4.26 C3.84 3.73, 4.44 3.23, 5.06 2.79 C5.69 2.35, 6.38 1.94, 7.09 1.6 C7.8 1.25, 8.56 0.96, 9.33 0.72 C10.1 0.48, 10.91 0.3, 11.72 0.18 C12.52 0.06, 13.36 0, 14.18 0 C15 0, 15.83 0.06, 16.64 0.18 C17.45 0.3, 18.26 0.48, 19.03 0.72 C19.8 0.96, 20.56 1.25, 21.27 1.6 C21.98 1.94, 22.66 2.35, 23.29 2.79 C23.92 3.23, 24.51 3.73, 25.04 4.26 C25.57 4.79, 26.05 5.36, 26.46 5.96 C26.87 6.56, 27.22 7.2, 27.5 7.84 C27.78 8.49, 28 9.17, 28.14 9.85 C28.28 10.53, 28.32 11.58, 28.36 11.92 C28.39 12.27, 28.39 11.58, 28.36 11.92" stroke="#000000" stroke-width="2" fill="none"></path></g><g stroke-linecap="round" transform="translate(123.06621145077031 244.23090543141552) rotate(0 245.2085011553404 31.255221265309956)"><path d="M0 0 C0 0, 0 0, 0 0 M0 0 C0 0, 0 0, 0 0 M0.13 12.04 C3.21 8.5, 6.28 4.97, 10.63 -0.03 M0.13 12.04 C2.99 8.75, 5.85 5.47, 10.63 -0.03 M0.27 24.08 C8.33 14.81, 16.39 5.53, 21.26 -0.07 M0.27 24.08 C5.92 17.57, 11.58 11.06, 21.26 -0.07 M-0.26 36.88 C6.19 29.46, 12.63 22.05, 31.89 -0.1 M-0.26 36.88 C10.88 24.07, 22.01 11.27, 31.89 -0.1 M-0.12 48.92 C16.77 29.48, 33.67 10.05, 42.52 -0.14 M-0.12 48.92 C9.16 38.24, 18.45 27.55, 42.52 -0.14 M0.01 60.96 C11.97 47.2, 23.93 33.44, 53.15 -0.17 M0.01 60.96 C19.16 38.93, 38.3 16.91, 53.15 -0.17 M5.39 66.96 C25.47 43.87, 45.54 20.77, 63.78 -0.21 M5.39 66.96 C26.32 42.89, 47.25 18.81, 63.78 -0.21 M16.02 66.93 C34.42 45.77, 52.81 24.61, 74.41 -0.24 M16.02 66.93 C36.55 43.31, 57.08 19.7, 74.41 -0.24 M26.65 66.89 C38.94 52.76, 51.22 38.63, 85.04 -0.28 M26.65 66.89 C48.9 41.3, 71.16 15.7, 85.04 -0.28 M37.28 66.86 C55.61 45.78, 73.94 24.69, 95.67 -0.31 M37.28 66.86 C51.12 50.94, 64.97 35.01, 95.67 -0.31 M47.91 66.82 C66.87 45.02, 85.83 23.21, 106.3 -0.34 M47.91 66.82 C59.89 53.05, 71.87 39.27, 106.3 -0.34 M58.54 66.79 C73.58 49.49, 88.62 32.19, 116.27 0.38 M58.54 66.79 C76.64 45.97, 94.73 25.15, 116.27 0.38 M69.17 66.76 C84.22 49.44, 99.27 32.13, 126.91 0.34 M69.17 66.76 C85.31 48.19, 101.45 29.63, 126.91 0.34 M79.8 66.72 C96.49 47.52, 113.18 28.32, 137.54 0.31 M79.8 66.72 C100.42 43.01, 121.03 19.29, 137.54 0.31 M89.78 67.44 C109.49 44.76, 129.21 22.08, 148.17 0.27 M89.78 67.44 C106.3 48.44, 122.82 29.43, 148.17 0.27 M100.41 67.41 C119.63 45.29, 138.85 23.18, 158.8 0.24 M100.41 67.41 C119.32 45.65, 138.23 23.89, 158.8 0.24 M111.04 67.37 C129.75 45.84, 148.46 24.32, 169.43 0.2 M111.04 67.37 C124.1 52.34, 137.17 37.31, 169.43 0.2 M121.67 67.34 C133.67 53.52, 145.68 39.71, 180.06 0.17 M121.67 67.34 C136.25 50.56, 150.84 33.78, 180.06 0.17 M132.3 67.3 C150.92 45.87, 169.55 24.44, 190.69 0.13 M132.3 67.3 C152.15 44.46, 172.01 21.62, 190.69 0.13 M142.93 67.27 C162.69 44.53, 182.46 21.79, 201.32 0.1 M142.93 67.27 C163.36 43.76, 183.8 20.25, 201.32 0.1 M153.56 67.23 C170.41 47.85, 187.26 28.46, 211.95 0.06 M153.56 67.23 C176.89 40.4, 200.22 13.56, 211.95 0.06 M164.19 67.2 C178.4 50.85, 192.61 34.5, 222.58 0.03 M164.19 67.2 C182.85 45.72, 201.52 24.25, 222.58 0.03 M174.82 67.16 C194.08 45.01, 213.33 22.86, 233.21 0 M174.82 67.16 C198.16 40.32, 221.49 13.47, 233.21 0 M185.45 67.13 C198.93 51.62, 212.41 36.11, 243.84 -0.04 M185.45 67.13 C199.09 51.43, 212.74 35.74, 243.84 -0.04 M196.08 67.1 C218.77 40.99, 241.46 14.89, 254.47 -0.07 M196.08 67.1 C211.7 49.12, 227.33 31.14, 254.47 -0.07 M206.71 67.06 C224.64 46.43, 242.58 25.79, 265.1 -0.11 M206.71 67.06 C221.09 50.51, 235.48 33.97, 265.1 -0.11 M217.34 67.03 C238.14 43.1, 258.94 19.17, 275.73 -0.14 M217.34 67.03 C238.37 42.83, 259.4 18.64, 275.73 -0.14 M227.97 66.99 C243.95 48.61, 259.93 30.23, 286.36 -0.18 M227.97 66.99 C245.01 47.38, 262.06 27.78, 286.36 -0.18 M238.6 66.96 C260.15 42.16, 281.71 17.37, 296.99 -0.21 M238.6 66.96 C259.84 42.52, 281.08 18.09, 296.99 -0.21 M249.23 66.92 C262.48 51.68, 275.74 36.43, 307.62 -0.25 M249.23 66.92 C271.66 41.12, 294.09 15.31, 307.62 -0.25 M259.86 66.89 C277.92 46.11, 295.98 25.34, 318.25 -0.28 M259.86 66.89 C282.9 40.38, 305.95 13.87, 318.25 -0.28 M270.49 66.85 C285.62 49.44, 300.76 32.03, 328.88 -0.31 M270.49 66.85 C288.98 45.58, 307.47 24.31, 328.88 -0.31 M281.12 66.82 C298.86 46.41, 316.6 26, 339.51 -0.35 M281.12 66.82 C298.56 46.76, 316 26.69, 339.51 -0.35 M291.75 66.79 C312.39 43.03, 333.04 19.28, 349.48 0.37 M291.75 66.79 C312.69 42.7, 333.63 18.6, 349.48 0.37 M302.38 66.75 C315.38 51.79, 328.39 36.83, 360.11 0.34 M302.38 66.75 C322.67 43.41, 342.96 20.07, 360.11 0.34 M312.35 67.47 C330.16 46.99, 347.96 26.51, 370.74 0.3 M312.35 67.47 C334.25 42.28, 356.16 17.08, 370.74 0.3 M322.98 67.44 C345.83 41.15, 368.68 14.87, 381.37 0.27 M322.98 67.44 C343.9 43.38, 364.81 19.32, 381.37 0.27 M333.61 67.4 C355.74 41.95, 377.87 16.49, 392 0.23 M333.61 67.4 C350.34 48.16, 367.06 28.92, 392 0.23 M344.24 67.37 C359.73 49.56, 375.21 31.74, 402.63 0.2 M344.24 67.37 C364.9 43.6, 385.56 19.84, 402.63 0.2 M354.87 67.33 C369.65 50.33, 384.44 33.32, 413.26 0.16 M354.87 67.33 C367.08 53.29, 379.28 39.25, 413.26 0.16 M365.5 67.3 C386.24 43.44, 406.99 19.58, 423.89 0.13 M365.5 67.3 C383.19 46.95, 400.87 26.61, 423.89 0.13 M376.13 67.26 C393.41 47.38, 410.7 27.5, 434.52 0.1 M376.13 67.26 C395.68 44.77, 415.23 22.28, 434.52 0.1 M386.76 67.23 C405.17 46.06, 423.57 24.88, 445.15 0.06 M386.76 67.23 C410.11 40.37, 433.46 13.51, 445.15 0.06 M397.39 67.2 C413.24 48.97, 429.08 30.74, 455.78 0.03 M397.39 67.2 C411.14 51.38, 424.89 35.56, 455.78 0.03 M408.02 67.16 C422.28 50.76, 436.54 34.35, 466.41 -0.01 M408.02 67.16 C429.55 42.4, 451.07 17.64, 466.41 -0.01 M418.65 67.13 C432.58 51.11, 446.5 35.09, 477.04 -0.04 M418.65 67.13 C439.81 42.79, 460.97 18.44, 477.04 -0.04 M429.28 67.09 C451.85 41.13, 474.42 15.17, 487.67 -0.08 M429.28 67.09 C450.47 42.71, 471.67 18.33, 487.67 -0.08 M439.91 67.06 C453.79 51.09, 467.67 35.13, 495.02 3.66 M439.91 67.06 C459.01 45.09, 478.1 23.12, 495.02 3.66 M450.54 67.02 C460.89 55.12, 471.23 43.22, 495.15 15.7 M450.54 67.02 C462.42 53.36, 474.29 39.71, 495.15 15.7 M461.17 66.99 C469.92 56.93, 478.66 46.87, 494.63 28.5 M461.17 66.99 C471.16 55.5, 481.15 44, 494.63 28.5 M471.8 66.95 C476.74 61.27, 481.69 55.59, 494.77 40.54 M471.8 66.95 C480.79 56.62, 489.77 46.28, 494.77 40.54 M482.43 66.92 C485.08 63.88, 487.72 60.84, 494.9 52.58 M482.43 66.92 C486.29 62.49, 490.14 58.06, 494.9 52.58" stroke="#fa5252" stroke-width="1" fill="none"></path><path d="M0 0 C101.1 0, 202.21 0, 490.42 0 M0 0 C111.97 0, 223.95 0, 490.42 0 M490.42 0 C490.42 19.52, 490.42 39.04, 490.42 62.51 M490.42 0 C490.42 24.6, 490.42 49.19, 490.42 62.51 M490.42 62.51 C314.27 62.51, 138.13 62.51, 0 62.51 M490.42 62.51 C323.58 62.51, 156.74 62.51, 0 62.51 M0 62.51 C0 40.67, 0 18.84, 0 0 M0 62.51 C0 44.97, 0 27.43, 0 0" stroke="#a61e4d" stroke-width="2" fill="none"></path></g><g transform="translate(145.73028668297786 253.1140436306805) rotate(0 219 25)"><text x="219" y="17" font-family="Virgil, Segoe UI Emoji" font-size="20px" fill="#000000" text-anchor="middle" style="white-space: pre;" direction="ltr">Update docs about the name of output file</text><text x="219" y="42" font-family="Virgil, Segoe UI Emoji" font-size="20px" fill="#000000" text-anchor="middle" style="white-space: pre;" direction="ltr"> after building process of microfrontend app</text></g><g stroke-linecap="round" transform="translate(109.37193913414683 235.36987749859145) rotate(0 14.177617650842876 11.922108521736845)"><path d="M28.36 11.92 C28.36 12.61, 28.28 13.31, 28.14 13.99 C28 14.67, 27.78 15.35, 27.5 16 C27.22 16.65, 26.87 17.29, 26.46 17.88 C26.05 18.48, 25.57 19.06, 25.04 19.59 C24.51 20.11, 23.92 20.61, 23.29 21.05 C22.66 21.5, 21.98 21.9, 21.27 22.25 C20.56 22.59, 19.8 22.89, 19.03 23.13 C18.26 23.36, 17.45 23.54, 16.64 23.66 C15.83 23.78, 15 23.84, 14.18 23.84 C13.36 23.84, 12.52 23.78, 11.72 23.66 C10.91 23.54, 10.1 23.36, 9.33 23.13 C8.56 22.89, 7.8 22.59, 7.09 22.25 C6.38 21.9, 5.69 21.5, 5.06 21.05 C4.44 20.61, 3.84 20.11, 3.32 19.59 C2.79 19.06, 2.31 18.48, 1.9 17.88 C1.49 17.29, 1.14 16.65, 0.86 16 C0.57 15.35, 0.36 14.67, 0.22 13.99 C0.07 13.31, 0 12.61, 0 11.92 C0 11.23, 0.07 10.53, 0.22 9.85 C0.36 9.17, 0.57 8.49, 0.86 7.84 C1.14 7.2, 1.49 6.56, 1.9 5.96 C2.31 5.36, 2.79 4.79, 3.32 4.26 C3.84 3.73, 4.44 3.23, 5.06 2.79 C5.69 2.35, 6.38 1.94, 7.09 1.6 C7.8 1.25, 8.56 0.96, 9.33 0.72 C10.1 0.48, 10.91 0.3, 11.72 0.18 C12.52 0.06, 13.36 0, 14.18 0 C15 0, 15.83 0.06, 16.64 0.18 C17.45 0.3, 18.26 0.48, 19.03 0.72 C19.8 0.96, 20.56 1.25, 21.27 1.6 C21.98 1.94, 22.66 2.35, 23.29 2.79 C23.92 3.23, 24.51 3.73, 25.04 4.26 C25.57 4.79, 26.05 5.36, 26.46 5.96 C26.87 6.56, 27.22 7.2, 27.5 7.84 C27.78 8.49, 28 9.17, 28.14 9.85 C28.28 10.53, 28.32 11.58, 28.36 11.92 C28.39 12.27, 28.39 11.58, 28.36 11.92" stroke="none" stroke-width="0" fill="#fa5252"></path><path d="M28.36 11.92 C28.36 12.61, 28.28 13.31, 28.14 13.99 C28 14.67, 27.78 15.35, 27.5 16 C27.22 16.65, 26.87 17.29, 26.46 17.88 C26.05 18.48, 25.57 19.06, 25.04 19.59 C24.51 20.11, 23.92 20.61, 23.29 21.05 C22.66 21.5, 21.98 21.9, 21.27 22.25 C20.56 22.59, 19.8 22.89, 19.03 23.13 C18.26 23.36, 17.45 23.54, 16.64 23.66 C15.83 23.78, 15 23.84, 14.18 23.84 C13.36 23.84, 12.52 23.78, 11.72 23.66 C10.91 23.54, 10.1 23.36, 9.33 23.13 C8.56 22.89, 7.8 22.59, 7.09 22.25 C6.38 21.9, 5.69 21.5, 5.06 21.05 C4.44 20.61, 3.84 20.11, 3.32 19.59 C2.79 19.06, 2.31 18.48, 1.9 17.88 C1.49 17.29, 1.14 16.65, 0.86 16 C0.57 15.35, 0.36 14.67, 0.22 13.99 C0.07 13.31, 0 12.61, 0 11.92 C0 11.23, 0.07 10.53, 0.22 9.85 C0.36 9.17, 0.57 8.49, 0.86 7.84 C1.14 7.2, 1.49 6.56, 1.9 5.96 C2.31 5.36, 2.79 4.79, 3.32 4.26 C3.84 3.73, 4.44 3.23, 5.06 2.79 C5.69 2.35, 6.38 1.94, 7.09 1.6 C7.8 1.25, 8.56 0.96, 9.33 0.72 C10.1 0.48, 10.91 0.3, 11.72 0.18 C12.52 0.06, 13.36 0, 14.18 0 C15 0, 15.83 0.06, 16.64 0.18 C17.45 0.3, 18.26 0.48, 19.03 0.72 C19.8 0.96, 20.56 1.25, 21.27 1.6 C21.98 1.94, 22.66 2.35, 23.29 2.79 C23.92 3.23, 24.51 3.73, 25.04 4.26 C25.57 4.79, 26.05 5.36, 26.46 5.96 C26.87 6.56, 27.22 7.2, 27.5 7.84 C27.78 8.49, 28 9.17, 28.14 9.85 C28.28 10.53, 28.32 11.58, 28.36 11.92 C28.39 12.27, 28.39 11.58, 28.36 11.92" stroke="#000000" stroke-width="2" fill="none"></path></g><g stroke-linecap="round" transform="translate(124.35506678644799 328.0077805841356) rotate(0 245.2085011553404 40.27735611509297)"><path d="M0 0 C0 0, 0 0, 0 0 M0 0 C0 0, 0 0, 0 0 M0.13 12.04 C4.2 7.36, 8.26 2.69, 10.63 -0.03 M0.13 12.04 C2.82 8.95, 5.51 5.86, 10.63 -0.03 M0.27 24.08 C4.85 18.81, 9.44 13.53, 21.26 -0.07 M0.27 24.08 C4.87 18.79, 9.47 13.5, 21.26 -0.07 M-0.26 36.88 C8.82 26.44, 17.89 16, 31.89 -0.1 M-0.26 36.88 C12.39 22.33, 25.03 7.79, 31.89 -0.1 M-0.12 48.92 C9.73 37.59, 19.58 26.25, 42.52 -0.14 M-0.12 48.92 C16.14 30.21, 32.41 11.5, 42.52 -0.14 M0.01 60.96 C14.34 44.47, 28.68 27.98, 53.15 -0.17 M0.01 60.96 C18.31 39.9, 36.62 18.85, 53.15 -0.17 M0.14 73 C16.66 54, 33.17 35.01, 63.78 -0.21 M0.14 73 C15.96 54.81, 31.77 36.62, 63.78 -0.21 M2.24 82.78 C25.37 56.18, 48.49 29.58, 74.41 -0.24 M2.24 82.78 C17.5 65.23, 32.76 47.68, 74.41 -0.24 M12.87 82.74 C37.04 54.94, 61.21 27.14, 85.04 -0.28 M12.87 82.74 C38.12 53.7, 63.37 24.66, 85.04 -0.28 M23.5 82.71 C48.81 53.6, 74.11 24.49, 95.67 -0.31 M23.5 82.71 C47.03 55.64, 70.56 28.58, 95.67 -0.31 M34.13 82.67 C54.61 59.12, 75.08 35.57, 106.3 -0.34 M34.13 82.67 C62.61 49.91, 91.09 17.15, 106.3 -0.34 M44.76 82.64 C67.78 56.16, 90.8 29.68, 116.27 0.38 M44.76 82.64 C69.77 53.87, 94.78 25.1, 116.27 0.38 M55.39 82.6 C71.67 63.89, 87.94 45.17, 126.91 0.34 M55.39 82.6 C81.97 52.03, 108.55 21.46, 126.91 0.34 M66.02 82.57 C90.41 54.52, 114.8 26.46, 137.54 0.31 M66.02 82.57 C92.75 51.82, 119.48 21.07, 137.54 0.31 M76.65 82.54 C96.93 59.21, 117.2 35.89, 148.17 0.27 M76.65 82.54 C94.5 62.01, 112.34 41.49, 148.17 0.27 M87.28 82.5 C113.05 52.86, 138.81 23.23, 158.8 0.24 M87.28 82.5 C102.95 64.48, 118.61 46.47, 158.8 0.24 M97.91 82.47 C116.78 60.76, 135.65 39.05, 169.43 0.2 M97.91 82.47 C117.68 59.73, 137.44 37, 169.43 0.2 M108.55 82.43 C128.36 59.64, 148.18 36.84, 180.06 0.17 M108.55 82.43 C132.57 54.79, 156.6 27.15, 180.06 0.17 M119.18 82.4 C146.08 51.44, 172.99 20.49, 190.69 0.13 M119.18 82.4 C139.21 59.35, 159.24 36.31, 190.69 0.13 M129.81 82.36 C146.56 63.09, 163.31 43.82, 201.32 0.1 M129.81 82.36 C151.62 57.27, 173.43 32.18, 201.32 0.1 M140.44 82.33 C163.58 55.7, 186.73 29.07, 211.95 0.06 M140.44 82.33 C166.78 52.02, 193.12 21.72, 211.95 0.06 M151.07 82.29 C173.95 55.97, 196.83 29.65, 222.58 0.03 M151.07 82.29 C175.09 54.66, 199.12 27.02, 222.58 0.03 M161.7 82.26 C176.31 65.44, 190.93 48.63, 233.21 0 M161.7 82.26 C178.03 63.46, 194.37 44.67, 233.21 0 M171.67 82.98 C190.98 60.77, 210.29 38.56, 243.84 -0.04 M171.67 82.98 C198.26 52.39, 224.85 21.8, 243.84 -0.04 M182.3 82.94 C197.6 65.35, 212.9 47.75, 254.47 -0.07 M182.3 82.94 C198.7 64.07, 215.11 45.2, 254.47 -0.07 M192.93 82.91 C218.6 53.38, 244.28 23.84, 265.1 -0.11 M192.93 82.91 C219.77 52.04, 246.6 21.16, 265.1 -0.11 M203.56 82.88 C227.76 55.04, 251.96 27.2, 275.73 -0.14 M203.56 82.88 C226.05 57.01, 248.53 31.14, 275.73 -0.14 M214.19 82.84 C236.47 57.22, 258.74 31.59, 286.36 -0.18 M214.19 82.84 C231.88 62.49, 249.57 42.14, 286.36 -0.18 M224.82 82.81 C243.48 61.34, 262.14 39.87, 296.99 -0.21 M224.82 82.81 C247.02 57.27, 269.22 31.74, 296.99 -0.21 M235.45 82.77 C264 49.93, 292.55 17.08, 307.62 -0.25 M235.45 82.77 C258.33 56.46, 281.2 30.14, 307.62 -0.25 M246.08 82.74 C264.94 61.04, 283.8 39.35, 318.25 -0.28 M246.08 82.74 C262.06 64.36, 278.04 45.98, 318.25 -0.28 M256.71 82.7 C280.62 55.2, 304.53 27.7, 328.88 -0.31 M256.71 82.7 C274.45 62.3, 292.18 41.9, 328.88 -0.31 M267.34 82.67 C290.32 56.24, 313.29 29.81, 339.51 -0.35 M267.34 82.67 C291.78 54.55, 316.23 26.43, 339.51 -0.35 M277.97 82.63 C304.84 51.73, 331.7 20.83, 349.48 0.37 M277.97 82.63 C300.82 56.35, 323.67 30.06, 349.48 0.37 M288.6 82.6 C317.19 49.71, 345.79 16.82, 360.11 0.34 M288.6 82.6 C311.84 55.87, 335.07 29.14, 360.11 0.34 M299.23 82.57 C315.97 63.31, 332.71 44.06, 370.74 0.3 M299.23 82.57 C324.69 53.28, 350.15 23.99, 370.74 0.3 M309.86 82.53 C336.41 51.99, 362.95 21.46, 381.37 0.27 M309.86 82.53 C333.11 55.78, 356.37 29.03, 381.37 0.27 M320.49 82.5 C346.02 53.12, 371.56 23.75, 392 0.23 M320.49 82.5 C334.99 65.82, 349.49 49.14, 392 0.23 M331.12 82.46 C352.09 58.34, 373.06 34.21, 402.63 0.2 M331.12 82.46 C350.01 60.73, 368.91 38.99, 402.63 0.2 M341.75 82.43 C358.96 62.64, 376.16 42.85, 413.26 0.16 M341.75 82.43 C358.68 62.95, 375.61 43.47, 413.26 0.16 M352.38 82.39 C375.41 55.9, 398.44 29.41, 423.89 0.13 M352.38 82.39 C377.16 53.89, 401.93 25.39, 423.89 0.13 M363.01 82.36 C386.32 55.55, 409.62 28.74, 434.52 0.1 M363.01 82.36 C381.95 60.57, 400.9 38.77, 434.52 0.1 M373.64 82.32 C388.58 65.14, 403.52 47.95, 445.15 0.06 M373.64 82.32 C399.11 53.03, 424.58 23.73, 445.15 0.06 M384.27 82.29 C405.69 57.65, 427.11 33.01, 455.78 0.03 M384.27 82.29 C400.27 63.89, 416.26 45.49, 455.78 0.03 M394.9 82.25 C409.25 65.75, 423.6 49.24, 466.41 -0.01 M394.9 82.25 C420.44 52.88, 445.97 23.5, 466.41 -0.01 M404.88 82.98 C433.26 50.32, 461.64 17.67, 477.04 -0.04 M404.88 82.98 C425.03 59.79, 445.18 36.61, 477.04 -0.04 M415.51 82.94 C439.99 54.78, 464.47 26.61, 487.67 -0.08 M415.51 82.94 C443.85 50.33, 472.2 17.72, 487.67 -0.08 M426.14 82.91 C445.73 60.36, 465.33 37.82, 495.02 3.66 M426.14 82.91 C448.69 56.96, 471.25 31.01, 495.02 3.66 M436.77 82.87 C457.91 58.55, 479.05 34.23, 495.15 15.7 M436.77 82.87 C459.33 56.91, 481.9 30.95, 495.15 15.7 M447.4 82.84 C466.08 61.35, 484.76 39.86, 494.63 28.5 M447.4 82.84 C461.28 66.86, 475.17 50.89, 494.63 28.5 M458.03 82.8 C465.43 74.28, 472.84 65.76, 494.77 40.54 M458.03 82.8 C466.89 72.61, 475.75 62.42, 494.77 40.54 M468.66 82.77 C479 70.87, 489.34 58.97, 494.9 52.58 M468.66 82.77 C474.79 75.71, 480.93 68.65, 494.9 52.58 M479.29 82.73 C483.79 77.55, 488.29 72.37, 495.03 64.62 M479.29 82.73 C484.63 76.59, 489.97 70.44, 495.03 64.62" stroke="#82c91e" stroke-width="1" fill="none"></path><path d="M0 0 C193.75 0, 387.5 0, 490.42 0 M0 0 C128.36 0, 256.73 0, 490.42 0 M490.42 0 C490.42 25.54, 490.42 51.07, 490.42 80.55 M490.42 0 C490.42 29.17, 490.42 58.33, 490.42 80.55 M490.42 80.55 C346.58 80.55, 202.75 80.55, 0 80.55 M490.42 80.55 C299.38 80.55, 108.33 80.55, 0 80.55 M0 80.55 C0 59.7, 0 38.84, 0 0 M0 80.55 C0 51.58, 0 22.6, 0 0" stroke="#5c940d" stroke-width="2" fill="none"></path></g><g transform="translate(200.5524180433489 332.54097056713636) rotate(0 179 37)"><text x="179" y="17.666666666666668" font-family="Virgil, Segoe UI Emoji" font-size="20px" fill="#000000" text-anchor="middle" style="white-space: pre;" direction="ltr">Create tips section in docs</text><text x="179" y="42.333333333333336" font-family="Virgil, Segoe UI Emoji" font-size="20px" fill="#000000" text-anchor="middle" style="white-space: pre;" direction="ltr"> for creating/deploying microfrontend</text><text x="179" y="67" font-family="Virgil, Segoe UI Emoji" font-size="20px" fill="#000000" text-anchor="middle" style="white-space: pre;" direction="ltr"> (load styles etc)</text></g><g stroke-linecap="round" transform="translate(110.82193826179389 319.1468018179921) rotate(0 14.177617650842876 11.922108521736845)"><path d="M28.36 11.92 C28.36 12.61, 28.28 13.31, 28.14 13.99 C28 14.67, 27.78 15.35, 27.5 16 C27.22 16.65, 26.87 17.29, 26.46 17.88 C26.05 18.48, 25.57 19.06, 25.04 19.59 C24.51 20.11, 23.92 20.61, 23.29 21.05 C22.66 21.5, 21.98 21.9, 21.27 22.25 C20.56 22.59, 19.8 22.89, 19.03 23.13 C18.26 23.36, 17.45 23.54, 16.64 23.66 C15.83 23.78, 15 23.84, 14.18 23.84 C13.36 23.84, 12.52 23.78, 11.72 23.66 C10.91 23.54, 10.1 23.36, 9.33 23.13 C8.56 22.89, 7.8 22.59, 7.09 22.25 C6.38 21.9, 5.69 21.5, 5.06 21.05 C4.44 20.61, 3.84 20.11, 3.32 19.59 C2.79 19.06, 2.31 18.48, 1.9 17.88 C1.49 17.29, 1.14 16.65, 0.86 16 C0.57 15.35, 0.36 14.67, 0.22 13.99 C0.07 13.31, 0 12.61, 0 11.92 C0 11.23, 0.07 10.53, 0.22 9.85 C0.36 9.17, 0.57 8.49, 0.86 7.84 C1.14 7.2, 1.49 6.56, 1.9 5.96 C2.31 5.36, 2.79 4.79, 3.32 4.26 C3.84 3.73, 4.44 3.23, 5.06 2.79 C5.69 2.35, 6.38 1.94, 7.09 1.6 C7.8 1.25, 8.56 0.96, 9.33 0.72 C10.1 0.48, 10.91 0.3, 11.72 0.18 C12.52 0.06, 13.36 0, 14.18 0 C15 0, 15.83 0.06, 16.64 0.18 C17.45 0.3, 18.26 0.48, 19.03 0.72 C19.8 0.96, 20.56 1.25, 21.27 1.6 C21.98 1.94, 22.66 2.35, 23.29 2.79 C23.92 3.23, 24.51 3.73, 25.04 4.26 C25.57 4.79, 26.05 5.36, 26.46 5.96 C26.87 6.56, 27.22 7.2, 27.5 7.84 C27.78 8.49, 28 9.17, 28.14 9.85 C28.28 10.53, 28.32 11.58, 28.36 11.92 C28.39 12.27, 28.39 11.58, 28.36 11.92" stroke="none" stroke-width="0" fill="#fa5252"></path><path d="M28.36 11.92 C28.36 12.61, 28.28 13.31, 28.14 13.99 C28 14.67, 27.78 15.35, 27.5 16 C27.22 16.65, 26.87 17.29, 26.46 17.88 C26.05 18.48, 25.57 19.06, 25.04 19.59 C24.51 20.11, 23.92 20.61, 23.29 21.05 C22.66 21.5, 21.98 21.9, 21.27 22.25 C20.56 22.59, 19.8 22.89, 19.03 23.13 C18.26 23.36, 17.45 23.54, 16.64 23.66 C15.83 23.78, 15 23.84, 14.18 23.84 C13.36 23.84, 12.52 23.78, 11.72 23.66 C10.91 23.54, 10.1 23.36, 9.33 23.13 C8.56 22.89, 7.8 22.59, 7.09 22.25 C6.38 21.9, 5.69 21.5, 5.06 21.05 C4.44 20.61, 3.84 20.11, 3.32 19.59 C2.79 19.06, 2.31 18.48, 1.9 17.88 C1.49 17.29, 1.14 16.65, 0.86 16 C0.57 15.35, 0.36 14.67, 0.22 13.99 C0.07 13.31, 0 12.61, 0 11.92 C0 11.23, 0.07 10.53, 0.22 9.85 C0.36 9.17, 0.57 8.49, 0.86 7.84 C1.14 7.2, 1.49 6.56, 1.9 5.96 C2.31 5.36, 2.79 4.79, 3.32 4.26 C3.84 3.73, 4.44 3.23, 5.06 2.79 C5.69 2.35, 6.38 1.94, 7.09 1.6 C7.8 1.25, 8.56 0.96, 9.33 0.72 C10.1 0.48, 10.91 0.3, 11.72 0.18 C12.52 0.06, 13.36 0, 14.18 0 C15 0, 15.83 0.06, 16.64 0.18 C17.45 0.3, 18.26 0.48, 19.03 0.72 C19.8 0.96, 20.56 1.25, 21.27 1.6 C21.98 1.94, 22.66 2.35, 23.29 2.79 C23.92 3.23, 24.51 3.73, 25.04 4.26 C25.57 4.79, 26.05 5.36, 26.46 5.96 C26.87 6.56, 27.22 7.2, 27.5 7.84 C27.78 8.49, 28 9.17, 28.14 9.85 C28.28 10.53, 28.32 11.58, 28.36 11.92 C28.39 12.27, 28.39 11.58, 28.36 11.92" stroke="#000000" stroke-width="2" fill="none"></path></g><g stroke-linecap="round" transform="translate(122.90509224214145 420.8067905866383) rotate(0 245.2085011553404 40.27735611509297)"><path d="M0 0 C0 0, 0 0, 0 0 M0 0 C0 0, 0 0, 0 0 M0.13 12.04 C3.15 8.57, 6.16 5.1, 10.63 -0.03 M0.13 12.04 C3.73 7.9, 7.33 3.77, 10.63 -0.03 M0.27 24.08 C5.85 17.66, 11.43 11.24, 21.26 -0.07 M0.27 24.08 C8.63 14.46, 16.99 4.84, 21.26 -0.07 M-0.26 36.88 C11.07 23.85, 22.39 10.83, 31.89 -0.1 M-0.26 36.88 C6.97 28.56, 14.2 20.25, 31.89 -0.1 M-0.12 48.92 C15.96 30.41, 32.05 11.91, 42.52 -0.14 M-0.12 48.92 C11.58 35.46, 23.28 22, 42.52 -0.14 M0.01 60.96 C11.61 47.61, 23.22 34.26, 53.15 -0.17 M0.01 60.96 C19.34 38.72, 38.68 16.48, 53.15 -0.17 M0.14 73 C19.42 50.82, 38.7 28.64, 63.78 -0.21 M0.14 73 C20.58 49.49, 41.01 25.99, 63.78 -0.21 M2.24 82.78 C17.48 65.24, 32.72 47.71, 74.41 -0.24 M2.24 82.78 C26.22 55.2, 50.19 27.62, 74.41 -0.24 M12.87 82.74 C40.23 51.28, 67.58 19.81, 85.04 -0.28 M12.87 82.74 C40.89 50.51, 68.91 18.28, 85.04 -0.28 M23.5 82.71 C45.27 57.66, 67.04 32.62, 95.67 -0.31 M23.5 82.71 C40.25 63.45, 56.99 44.18, 95.67 -0.31 M34.13 82.67 C51.2 63.04, 68.26 43.42, 106.3 -0.34 M34.13 82.67 C48.95 65.63, 63.76 48.6, 106.3 -0.34 M44.76 82.64 C59.5 65.69, 74.23 48.74, 116.27 0.38 M44.76 82.64 C73.02 50.14, 101.27 17.63, 116.27 0.38 M55.39 82.6 C76.96 57.79, 98.53 32.99, 126.91 0.34 M55.39 82.6 C75.51 59.46, 95.63 36.32, 126.91 0.34 M66.02 82.57 C86.46 59.06, 106.9 35.54, 137.54 0.31 M66.02 82.57 C86.26 59.29, 106.49 36.02, 137.54 0.31 M76.65 82.54 C97.83 58.17, 119.01 33.81, 148.17 0.27 M76.65 82.54 C91.33 65.65, 106.01 48.76, 148.17 0.27 M87.28 82.5 C105.01 62.11, 122.74 41.71, 158.8 0.24 M87.28 82.5 C114.94 50.69, 142.59 18.87, 158.8 0.24 M97.91 82.47 C122.03 54.72, 146.15 26.98, 169.43 0.2 M97.91 82.47 C122.63 54.03, 147.35 25.6, 169.43 0.2 M108.55 82.43 C126.03 62.32, 143.51 42.21, 180.06 0.17 M108.55 82.43 C131.95 55.5, 155.36 28.58, 180.06 0.17 M119.18 82.4 C136.13 62.89, 153.08 43.39, 190.69 0.13 M119.18 82.4 C144.25 53.55, 169.33 24.7, 190.69 0.13 M129.81 82.36 C156.47 51.68, 183.14 21, 201.32 0.1 M129.81 82.36 C155.21 53.13, 180.62 23.9, 201.32 0.1 M140.44 82.33 C154.98 65.6, 169.52 48.87, 211.95 0.06 M140.44 82.33 C158.19 61.91, 175.94 41.48, 211.95 0.06 M151.07 82.29 C177.97 51.35, 204.87 20.4, 222.58 0.03 M151.07 82.29 C169.01 61.65, 186.95 41.01, 222.58 0.03 M161.7 82.26 C185.94 54.37, 210.18 26.48, 233.21 0 M161.7 82.26 C186.44 53.8, 211.18 25.34, 233.21 0 M171.67 82.98 C196.37 54.56, 221.07 26.15, 243.84 -0.04 M171.67 82.98 C187.84 64.37, 204.02 45.77, 243.84 -0.04 M182.3 82.94 C207.01 54.52, 231.71 26.1, 254.47 -0.07 M182.3 82.94 C206.19 55.46, 230.09 27.97, 254.47 -0.07 M192.93 82.91 C207.7 65.92, 222.47 48.93, 265.1 -0.11 M192.93 82.91 C208.41 65.1, 223.89 47.3, 265.1 -0.11 M203.56 82.88 C218.49 65.7, 233.42 48.52, 275.73 -0.14 M203.56 82.88 C230.31 52.11, 257.05 21.34, 275.73 -0.14 M214.19 82.84 C231.66 62.75, 249.13 42.65, 286.36 -0.18 M214.19 82.84 C242.43 50.35, 270.68 17.86, 286.36 -0.18 M224.82 82.81 C248.03 56.11, 271.23 29.41, 296.99 -0.21 M224.82 82.81 C240.06 65.28, 255.3 47.74, 296.99 -0.21 M235.45 82.77 C262.76 51.35, 290.08 19.93, 307.62 -0.25 M235.45 82.77 C253.76 61.71, 272.08 40.64, 307.62 -0.25 M246.08 82.74 C272.82 51.97, 299.57 21.21, 318.25 -0.28 M246.08 82.74 C266.22 59.57, 286.37 36.4, 318.25 -0.28 M256.71 82.7 C277.16 59.18, 297.61 35.65, 328.88 -0.31 M256.71 82.7 C280.55 55.28, 304.39 27.86, 328.88 -0.31 M267.34 82.67 C284.19 63.29, 301.03 43.91, 339.51 -0.35 M267.34 82.67 C294.8 51.08, 322.25 19.5, 339.51 -0.35 M277.97 82.63 C297.37 60.31, 316.78 37.99, 349.48 0.37 M277.97 82.63 C297.95 59.64, 317.94 36.66, 349.48 0.37 M288.6 82.6 C308.98 59.16, 329.35 35.72, 360.11 0.34 M288.6 82.6 C302.97 66.07, 317.34 49.54, 360.11 0.34 M299.23 82.57 C313.7 65.92, 328.18 49.27, 370.74 0.3 M299.23 82.57 C327.06 50.55, 354.9 18.53, 370.74 0.3 M309.86 82.53 C330.98 58.24, 352.09 33.95, 381.37 0.27 M309.86 82.53 C324.59 65.59, 339.32 48.64, 381.37 0.27 M320.49 82.5 C347.79 51.09, 375.1 19.68, 392 0.23 M320.49 82.5 C340.32 59.68, 360.16 36.86, 392 0.23 M331.12 82.46 C354.71 55.32, 378.3 28.19, 402.63 0.2 M331.12 82.46 C355.48 54.44, 379.84 26.42, 402.63 0.2 M341.75 82.43 C360.36 61.02, 378.97 39.61, 413.26 0.16 M341.75 82.43 C369.73 50.24, 397.71 18.05, 413.26 0.16 M352.38 82.39 C370.22 61.87, 388.07 41.34, 423.89 0.13 M352.38 82.39 C375.96 55.27, 399.54 28.15, 423.89 0.13 M363.01 82.36 C386.86 54.92, 410.72 27.48, 434.52 0.1 M363.01 82.36 C385.05 57.01, 407.09 31.66, 434.52 0.1 M373.64 82.32 C388.68 65.03, 403.72 47.73, 445.15 0.06 M373.64 82.32 C400.65 51.26, 427.65 20.19, 445.15 0.06 M384.27 82.29 C401.65 62.3, 419.03 42.3, 455.78 0.03 M384.27 82.29 C401.06 62.97, 417.85 43.66, 455.78 0.03 M394.9 82.25 C420.9 52.35, 446.9 22.44, 466.41 -0.01 M394.9 82.25 C414.11 60.16, 433.32 38.06, 466.41 -0.01 M404.88 82.98 C424.74 60.13, 444.6 37.28, 477.04 -0.04 M404.88 82.98 C427.08 57.43, 449.28 31.89, 477.04 -0.04 M415.51 82.94 C441.2 53.38, 466.89 23.83, 487.67 -0.08 M415.51 82.94 C434.74 60.82, 453.97 38.69, 487.67 -0.08 M426.14 82.91 C444.18 62.15, 462.22 41.39, 495.02 3.66 M426.14 82.91 C446.32 59.69, 466.5 36.48, 495.02 3.66 M436.77 82.87 C450.18 67.44, 463.59 52.01, 495.15 15.7 M436.77 82.87 C449.31 68.45, 461.85 54.02, 495.15 15.7 M447.4 82.84 C460.64 67.6, 473.88 52.37, 494.63 28.5 M447.4 82.84 C460.93 67.27, 474.47 51.69, 494.63 28.5 M458.03 82.8 C469.86 69.19, 481.69 55.59, 494.77 40.54 M458.03 82.8 C466.72 72.8, 475.42 62.8, 494.77 40.54 M468.66 82.77 C477.92 72.11, 487.19 61.45, 494.9 52.58 M468.66 82.77 C474.27 76.31, 479.89 69.85, 494.9 52.58 M479.29 82.73 C485.04 76.11, 490.79 69.5, 495.03 64.62 M479.29 82.73 C482.99 78.48, 486.69 74.22, 495.03 64.62" stroke="#82c91e" stroke-width="1" fill="none"></path><path d="M0 0 C191.8 0, 383.6 0, 490.42 0 M0 0 C192.03 0, 384.06 0, 490.42 0 M490.42 0 C490.42 22.93, 490.42 45.87, 490.42 80.55 M490.42 0 C490.42 24.79, 490.42 49.57, 490.42 80.55 M490.42 80.55 C382.36 80.55, 274.29 80.55, 0 80.55 M490.42 80.55 C315.1 80.55, 139.78 80.55, 0 80.55 M0 80.55 C0 60.98, 0 41.4, 0 0 M0 80.55 C0 50.38, 0 20.2, 0 0" stroke="#5c940d" stroke-width="2" fill="none"></path></g><g transform="translate(224.86895859468916 422.4399577310078) rotate(0 160 37)"><text x="160" y="17.666666666666668" font-family="Virgil, Segoe UI Emoji" font-size="20px" fill="#000000" text-anchor="middle" style="white-space: pre;" direction="ltr">Update version of dependencies </text><text x="160" y="42.333333333333336" font-family="Virgil, Segoe UI Emoji" font-size="20px" fill="#000000" text-anchor="middle" style="white-space: pre;" direction="ltr">in all apps in the solution</text><text x="160" y="67" font-family="Virgil, Segoe UI Emoji" font-size="20px" fill="#000000" text-anchor="middle" style="white-space: pre;" direction="ltr"> (Shell, Portal, Header, backend)</text></g><g stroke-linecap="round" transform="translate(111.14415209571337 414.36240328321946) rotate(0 14.177617650842876 11.922108521736845)"><path d="M28.36 11.92 C28.36 12.61, 28.28 13.31, 28.14 13.99 C28 14.67, 27.78 15.35, 27.5 16 C27.22 16.65, 26.87 17.29, 26.46 17.88 C26.05 18.48, 25.57 19.06, 25.04 19.59 C24.51 20.11, 23.92 20.61, 23.29 21.05 C22.66 21.5, 21.98 21.9, 21.27 22.25 C20.56 22.59, 19.8 22.89, 19.03 23.13 C18.26 23.36, 17.45 23.54, 16.64 23.66 C15.83 23.78, 15 23.84, 14.18 23.84 C13.36 23.84, 12.52 23.78, 11.72 23.66 C10.91 23.54, 10.1 23.36, 9.33 23.13 C8.56 22.89, 7.8 22.59, 7.09 22.25 C6.38 21.9, 5.69 21.5, 5.06 21.05 C4.44 20.61, 3.84 20.11, 3.32 19.59 C2.79 19.06, 2.31 18.48, 1.9 17.88 C1.49 17.29, 1.14 16.65, 0.86 16 C0.57 15.35, 0.36 14.67, 0.22 13.99 C0.07 13.31, 0 12.61, 0 11.92 C0 11.23, 0.07 10.53, 0.22 9.85 C0.36 9.17, 0.57 8.49, 0.86 7.84 C1.14 7.2, 1.49 6.56, 1.9 5.96 C2.31 5.36, 2.79 4.79, 3.32 4.26 C3.84 3.73, 4.44 3.23, 5.06 2.79 C5.69 2.35, 6.38 1.94, 7.09 1.6 C7.8 1.25, 8.56 0.96, 9.33 0.72 C10.1 0.48, 10.91 0.3, 11.72 0.18 C12.52 0.06, 13.36 0, 14.18 0 C15 0, 15.83 0.06, 16.64 0.18 C17.45 0.3, 18.26 0.48, 19.03 0.72 C19.8 0.96, 20.56 1.25, 21.27 1.6 C21.98 1.94, 22.66 2.35, 23.29 2.79 C23.92 3.23, 24.51 3.73, 25.04 4.26 C25.57 4.79, 26.05 5.36, 26.46 5.96 C26.87 6.56, 27.22 7.2, 27.5 7.84 C27.78 8.49, 28 9.17, 28.14 9.85 C28.28 10.53, 28.32 11.58, 28.36 11.92 C28.39 12.27, 28.39 11.58, 28.36 11.92" stroke="none" stroke-width="0" fill="#fa5252"></path><path d="M28.36 11.92 C28.36 12.61, 28.28 13.31, 28.14 13.99 C28 14.67, 27.78 15.35, 27.5 16 C27.22 16.65, 26.87 17.29, 26.46 17.88 C26.05 18.48, 25.57 19.06, 25.04 19.59 C24.51 20.11, 23.92 20.61, 23.29 21.05 C22.66 21.5, 21.98 21.9, 21.27 22.25 C20.56 22.59, 19.8 22.89, 19.03 23.13 C18.26 23.36, 17.45 23.54, 16.64 23.66 C15.83 23.78, 15 23.84, 14.18 23.84 C13.36 23.84, 12.52 23.78, 11.72 23.66 C10.91 23.54, 10.1 23.36, 9.33 23.13 C8.56 22.89, 7.8 22.59, 7.09 22.25 C6.38 21.9, 5.69 21.5, 5.06 21.05 C4.44 20.61, 3.84 20.11, 3.32 19.59 C2.79 19.06, 2.31 18.48, 1.9 17.88 C1.49 17.29, 1.14 16.65, 0.86 16 C0.57 15.35, 0.36 14.67, 0.22 13.99 C0.07 13.31, 0 12.61, 0 11.92 C0 11.23, 0.07 10.53, 0.22 9.85 C0.36 9.17, 0.57 8.49, 0.86 7.84 C1.14 7.2, 1.49 6.56, 1.9 5.96 C2.31 5.36, 2.79 4.79, 3.32 4.26 C3.84 3.73, 4.44 3.23, 5.06 2.79 C5.69 2.35, 6.38 1.94, 7.09 1.6 C7.8 1.25, 8.56 0.96, 9.33 0.72 C10.1 0.48, 10.91 0.3, 11.72 0.18 C12.52 0.06, 13.36 0, 14.18 0 C15 0, 15.83 0.06, 16.64 0.18 C17.45 0.3, 18.26 0.48, 19.03 0.72 C19.8 0.96, 20.56 1.25, 21.27 1.6 C21.98 1.94, 22.66 2.35, 23.29 2.79 C23.92 3.23, 24.51 3.73, 25.04 4.26 C25.57 4.79, 26.05 5.36, 26.46 5.96 C26.87 6.56, 27.22 7.2, 27.5 7.84 C27.78 8.49, 28 9.17, 28.14 9.85 C28.28 10.53, 28.32 11.58, 28.36 11.92 C28.39 12.27, 28.39 11.58, 28.36 11.92" stroke="#000000" stroke-width="2" fill="none"></path></g><g stroke-linecap="round" transform="translate(696.776755871622 105.3546042615817) rotate(0 14.177617650842876 11.922108521736845)"><path d="M28.36 11.92 C28.36 12.61, 28.28 13.31, 28.14 13.99 C28 14.67, 27.78 15.35, 27.5 16 C27.22 16.65, 26.87 17.29, 26.46 17.88 C26.05 18.48, 25.57 19.06, 25.04 19.59 C24.51 20.11, 23.92 20.61, 23.29 21.05 C22.66 21.5, 21.98 21.9, 21.27 22.25 C20.56 22.59, 19.8 22.89, 19.03 23.13 C18.26 23.36, 17.45 23.54, 16.64 23.66 C15.83 23.78, 15 23.84, 14.18 23.84 C13.36 23.84, 12.52 23.78, 11.72 23.66 C10.91 23.54, 10.1 23.36, 9.33 23.13 C8.56 22.89, 7.8 22.59, 7.09 22.25 C6.38 21.9, 5.69 21.5, 5.06 21.05 C4.44 20.61, 3.84 20.11, 3.32 19.59 C2.79 19.06, 2.31 18.48, 1.9 17.88 C1.49 17.29, 1.14 16.65, 0.86 16 C0.57 15.35, 0.36 14.67, 0.22 13.99 C0.07 13.31, 0 12.61, 0 11.92 C0 11.23, 0.07 10.53, 0.22 9.85 C0.36 9.17, 0.57 8.49, 0.86 7.84 C1.14 7.2, 1.49 6.56, 1.9 5.96 C2.31 5.36, 2.79 4.79, 3.32 4.26 C3.84 3.73, 4.44 3.23, 5.06 2.79 C5.69 2.35, 6.38 1.94, 7.09 1.6 C7.8 1.25, 8.56 0.96, 9.33 0.72 C10.1 0.48, 10.91 0.3, 11.72 0.18 C12.52 0.06, 13.36 0, 14.18 0 C15 0, 15.83 0.06, 16.64 0.18 C17.45 0.3, 18.26 0.48, 19.03 0.72 C19.8 0.96, 20.56 1.25, 21.27 1.6 C21.98 1.94, 22.66 2.35, 23.29 2.79 C23.92 3.23, 24.51 3.73, 25.04 4.26 C25.57 4.79, 26.05 5.36, 26.46 5.96 C26.87 6.56, 27.22 7.2, 27.5 7.84 C27.78 8.49, 28 9.17, 28.14 9.85 C28.28 10.53, 28.32 11.58, 28.36 11.92 C28.39 12.27, 28.39 11.58, 28.36 11.92" stroke="none" stroke-width="0" fill="#fa5252"></path><path d="M28.36 11.92 C28.36 12.61, 28.28 13.31, 28.14 13.99 C28 14.67, 27.78 15.35, 27.5 16 C27.22 16.65, 26.87 17.29, 26.46 17.88 C26.05 18.48, 25.57 19.06, 25.04 19.59 C24.51 20.11, 23.92 20.61, 23.29 21.05 C22.66 21.5, 21.98 21.9, 21.27 22.25 C20.56 22.59, 19.8 22.89, 19.03 23.13 C18.26 23.36, 17.45 23.54, 16.64 23.66 C15.83 23.78, 15 23.84, 14.18 23.84 C13.36 23.84, 12.52 23.78, 11.72 23.66 C10.91 23.54, 10.1 23.36, 9.33 23.13 C8.56 22.89, 7.8 22.59, 7.09 22.25 C6.38 21.9, 5.69 21.5, 5.06 21.05 C4.44 20.61, 3.84 20.11, 3.32 19.59 C2.79 19.06, 2.31 18.48, 1.9 17.88 C1.49 17.29, 1.14 16.65, 0.86 16 C0.57 15.35, 0.36 14.67, 0.22 13.99 C0.07 13.31, 0 12.61, 0 11.92 C0 11.23, 0.07 10.53, 0.22 9.85 C0.36 9.17, 0.57 8.49, 0.86 7.84 C1.14 7.2, 1.49 6.56, 1.9 5.96 C2.31 5.36, 2.79 4.79, 3.32 4.26 C3.84 3.73, 4.44 3.23, 5.06 2.79 C5.69 2.35, 6.38 1.94, 7.09 1.6 C7.8 1.25, 8.56 0.96, 9.33 0.72 C10.1 0.48, 10.91 0.3, 11.72 0.18 C12.52 0.06, 13.36 0, 14.18 0 C15 0, 15.83 0.06, 16.64 0.18 C17.45 0.3, 18.26 0.48, 19.03 0.72 C19.8 0.96, 20.56 1.25, 21.27 1.6 C21.98 1.94, 22.66 2.35, 23.29 2.79 C23.92 3.23, 24.51 3.73, 25.04 4.26 C25.57 4.79, 26.05 5.36, 26.46 5.96 C26.87 6.56, 27.22 7.2, 27.5 7.84 C27.78 8.49, 28 9.17, 28.14 9.85 C28.28 10.53, 28.32 11.58, 28.36 11.92 C28.39 12.27, 28.39 11.58, 28.36 11.92" stroke="#000000" stroke-width="2" fill="none"></path></g><g stroke-linecap="round" transform="translate(697.5823273314298 154.65407064311785) rotate(0 14.177617650842876 11.922108521736845)"><path d="M28.36 11.92 C28.36 12.61, 28.28 13.31, 28.14 13.99 C28 14.67, 27.78 15.35, 27.5 16 C27.22 16.65, 26.87 17.29, 26.46 17.88 C26.05 18.48, 25.57 19.06, 25.04 19.59 C24.51 20.11, 23.92 20.61, 23.29 21.05 C22.66 21.5, 21.98 21.9, 21.27 22.25 C20.56 22.59, 19.8 22.89, 19.03 23.13 C18.26 23.36, 17.45 23.54, 16.64 23.66 C15.83 23.78, 15 23.84, 14.18 23.84 C13.36 23.84, 12.52 23.78, 11.72 23.66 C10.91 23.54, 10.1 23.36, 9.33 23.13 C8.56 22.89, 7.8 22.59, 7.09 22.25 C6.38 21.9, 5.69 21.5, 5.06 21.05 C4.44 20.61, 3.84 20.11, 3.32 19.59 C2.79 19.06, 2.31 18.48, 1.9 17.88 C1.49 17.29, 1.14 16.65, 0.86 16 C0.57 15.35, 0.36 14.67, 0.22 13.99 C0.07 13.31, 0 12.61, 0 11.92 C0 11.23, 0.07 10.53, 0.22 9.85 C0.36 9.17, 0.57 8.49, 0.86 7.84 C1.14 7.2, 1.49 6.56, 1.9 5.96 C2.31 5.36, 2.79 4.79, 3.32 4.26 C3.84 3.73, 4.44 3.23, 5.06 2.79 C5.69 2.35, 6.38 1.94, 7.09 1.6 C7.8 1.25, 8.56 0.96, 9.33 0.72 C10.1 0.48, 10.91 0.3, 11.72 0.18 C12.52 0.06, 13.36 0, 14.18 0 C15 0, 15.83 0.06, 16.64 0.18 C17.45 0.3, 18.26 0.48, 19.03 0.72 C19.8 0.96, 20.56 1.25, 21.27 1.6 C21.98 1.94, 22.66 2.35, 23.29 2.79 C23.92 3.23, 24.51 3.73, 25.04 4.26 C25.57 4.79, 26.05 5.36, 26.46 5.96 C26.87 6.56, 27.22 7.2, 27.5 7.84 C27.78 8.49, 28 9.17, 28.14 9.85 C28.28 10.53, 28.32 11.58, 28.36 11.92 C28.39 12.27, 28.39 11.58, 28.36 11.92" stroke="none" stroke-width="0" fill="#82c91e"></path><path d="M28.36 11.92 C28.36 12.61, 28.28 13.31, 28.14 13.99 C28 14.67, 27.78 15.35, 27.5 16 C27.22 16.65, 26.87 17.29, 26.46 17.88 C26.05 18.48, 25.57 19.06, 25.04 19.59 C24.51 20.11, 23.92 20.61, 23.29 21.05 C22.66 21.5, 21.98 21.9, 21.27 22.25 C20.56 22.59, 19.8 22.89, 19.03 23.13 C18.26 23.36, 17.45 23.54, 16.64 23.66 C15.83 23.78, 15 23.84, 14.18 23.84 C13.36 23.84, 12.52 23.78, 11.72 23.66 C10.91 23.54, 10.1 23.36, 9.33 23.13 C8.56 22.89, 7.8 22.59, 7.09 22.25 C6.38 21.9, 5.69 21.5, 5.06 21.05 C4.44 20.61, 3.84 20.11, 3.32 19.59 C2.79 19.06, 2.31 18.48, 1.9 17.88 C1.49 17.29, 1.14 16.65, 0.86 16 C0.57 15.35, 0.36 14.67, 0.22 13.99 C0.07 13.31, 0 12.61, 0 11.92 C0 11.23, 0.07 10.53, 0.22 9.85 C0.36 9.17, 0.57 8.49, 0.86 7.84 C1.14 7.2, 1.49 6.56, 1.9 5.96 C2.31 5.36, 2.79 4.79, 3.32 4.26 C3.84 3.73, 4.44 3.23, 5.06 2.79 C5.69 2.35, 6.38 1.94, 7.09 1.6 C7.8 1.25, 8.56 0.96, 9.33 0.72 C10.1 0.48, 10.91 0.3, 11.72 0.18 C12.52 0.06, 13.36 0, 14.18 0 C15 0, 15.83 0.06, 16.64 0.18 C17.45 0.3, 18.26 0.48, 19.03 0.72 C19.8 0.96, 20.56 1.25, 21.27 1.6 C21.98 1.94, 22.66 2.35, 23.29 2.79 C23.92 3.23, 24.51 3.73, 25.04 4.26 C25.57 4.79, 26.05 5.36, 26.46 5.96 C26.87 6.56, 27.22 7.2, 27.5 7.84 C27.78 8.49, 28 9.17, 28.14 9.85 C28.28 10.53, 28.32 11.58, 28.36 11.92 C28.39 12.27, 28.39 11.58, 28.36 11.92" stroke="#000000" stroke-width="2" fill="none"></path></g><g transform="translate(743.7365936508171 103.92675227538712) rotate(0 60.5 12.5)"><text x="60.5" y="18" font-family="Virgil, Segoe UI Emoji" font-size="20px" fill="#000000" text-anchor="middle" style="white-space: pre;" direction="ltr">not started</text></g><g transform="translate(747.6755745202526 152.09847023820294) rotate(0 53.5 12.5)"><text x="53.5" y="18" font-family="Virgil, Segoe UI Emoji" font-size="20px" fill="#000000" text-anchor="middle" style="white-space: pre;" direction="ltr">in progress</text></g></svg>